<svg width="300" height="148" viewBox="0 0 300 148" fill="none" xmlns="http://www.w3.org/2000/svg">
<mask id="path-1-inside-1_77_11" fill="white">
<path d="M85.9406 22.8796C86.0738 22.6178 85.9767 22.2917 85.7118 22.1569C85.4485 22.0253 85.1225 22.1256 84.983 22.3858C82.8922 26.4222 79.1605 29.8237 77.0149 31.5825C78.3706 29.3299 81.0946 24.2809 81.7043 19.1003C81.7387 18.8056 81.5224 18.5375 81.2325 18.503C80.9676 18.5093 80.6761 18.6802 80.6354 18.9749C80.0022 24.3766 76.877 29.772 75.7721 31.5433C74.6891 28.7891 72.0216 21.3167 72.382 15.0937C72.404 14.799 72.1752 14.5419 71.8758 14.5294C71.8695 14.5247 71.8554 14.5247 71.8476 14.5247C71.5624 14.5247 71.3257 14.7472 71.3132 15.031C70.9731 20.8919 73.1469 27.648 74.4038 31.0088C72.1187 28.1747 67.9435 22.5206 67.2915 18.2977C67.2555 18.0061 66.9781 17.8259 66.6803 17.8509C66.3872 17.8948 66.1866 18.1707 66.2352 18.4654C67.0893 24.0693 73.4525 31.6279 74.8004 33.1766C74.0982 43.2997 71.6674 53.8993 68.3604 64.2873C67.7413 60.6428 67.0141 54.3398 68.2146 49.2657C68.2836 48.9789 68.1049 48.6858 67.8181 48.6168C67.5329 48.5603 67.2351 48.7249 67.1724 49.0149C65.8183 54.6988 66.7696 61.6821 67.4232 65.2279C65.3951 61.9078 61.9565 55.3242 61.9565 48.7563C61.9565 48.4616 61.7198 48.2186 61.422 48.2186C61.1227 48.2186 60.8876 48.4616 60.8876 48.7563C60.8876 56.8745 65.7556 64.778 67.4373 67.2656C64.9563 74.644 62.0474 81.8248 59.0116 88.6341C58.3862 85.1386 57.4897 78.3574 58.7686 72.9777C58.8376 72.6893 58.6652 72.3961 58.3737 72.3319C58.0869 72.2519 57.7891 72.4353 57.7264 72.7269C56.2814 78.7619 57.4333 86.2515 58.0743 89.5386C57.5524 88.5965 56.8989 87.355 56.2406 85.9568C56.4694 85.4113 56.7124 84.8689 56.9004 84.3109C56.9976 84.0288 56.844 83.7231 56.5603 83.629C56.2829 83.5318 55.971 83.687 55.888 83.9692C55.8174 84.1839 55.714 84.3893 55.6294 84.6009C54.3097 81.6179 53.1295 78.2273 53.1844 75.5908C53.1907 75.2961 52.954 75.0484 52.6625 75.0421C52.6562 75.0421 52.6562 75.0421 52.6484 75.0421C52.3569 75.0421 52.1218 75.2741 52.1139 75.5704C52.045 78.7007 53.5308 82.7293 55.0589 86.0132C53.3427 89.7549 50.6485 93.0091 49.1408 94.6675C51.4667 80.8451 51.9118 67.007 51.6344 55.6205C53.9963 53.9181 62.0537 47.623 67.5078 37.3541C67.6457 37.0908 67.5485 36.7631 67.2837 36.6252C67.0407 36.492 66.7007 36.5939 66.5612 36.8478C62.6492 44.2136 57.3502 49.5071 53.8834 52.4698C55.9052 49.6419 58.4207 44.7121 58.6511 37.3447C58.6636 37.0469 58.427 36.7992 58.1292 36.7882C58.1292 36.7882 58.1213 36.7882 58.1135 36.7882C57.822 36.7882 57.5853 37.0187 57.5791 37.3102C57.2938 46.2937 53.4101 51.5982 51.5905 53.6109C51.1532 39.8747 49.7646 30.2908 49.6878 29.7751C50.7426 28.2186 55.8629 20.4029 56.8848 13.1531C56.9255 12.8584 56.7171 12.5888 56.4255 12.5449C56.1136 12.5073 55.8566 12.7016 55.8143 12.9995C55.0714 18.304 51.9384 24.0756 50.0483 27.184C50.5827 24.328 51.2081 19.3714 50.2081 14.8319C50.1454 14.5435 49.8947 14.3319 49.5608 14.4259C49.2756 14.4886 49.0891 14.777 49.1518 15.0686C50.2489 20.0016 49.2913 25.6572 48.7772 28.0759C43.6992 22.7918 43.2964 13.5371 43.2886 13.4431C43.2823 13.1515 43.0472 12.9211 42.7541 12.9211C42.7479 12.9211 42.7416 12.9211 42.7338 12.9211C42.4422 12.9321 42.2072 13.1829 42.2197 13.4776C42.226 13.7487 42.4422 18.1002 44.207 22.6178C42.519 20.0392 40.9549 17.1456 40.5803 14.7159C40.5396 14.4212 40.2465 14.2206 39.9691 14.2692C39.676 14.3146 39.4769 14.5889 39.524 14.8836C40.4487 20.8622 47.6582 29.0979 48.318 29.8378C48.318 29.866 48.2898 29.888 48.2976 29.9146C48.3321 30.1576 49.7223 39.5173 50.1878 53.0231C48.4873 50.0432 45.1866 43.665 44.6035 37.9701C44.5753 37.6958 44.3387 37.4873 44.0691 37.4873C44.0487 37.4873 44.033 37.4905 44.0127 37.4905C43.7196 37.5234 43.5049 37.7852 43.5331 38.0799C44.055 43.1837 46.583 48.6528 48.4026 52.0308C46.0533 48.9836 42.7886 44.1964 42.2197 40.5033C42.1789 40.2086 41.8859 40.0079 41.6069 40.0549C41.3154 40.1004 41.1148 40.3747 41.1633 40.6694C42.1006 46.8047 49.7144 55.3681 50.0342 55.7286C50.0827 55.7788 50.1454 55.7741 50.2019 55.8055C50.216 55.865 50.1329 55.9136 50.1674 55.9685C50.1878 56.0014 50.2301 55.9904 50.2504 56.0139C50.5153 67.4506 50.0342 81.3154 47.6535 95.1065C46.1739 92.368 43.3042 86.1669 44.5894 81.2777C44.6662 80.9925 44.4923 80.6978 44.207 80.621C43.881 80.541 43.6161 80.7181 43.5472 81.0066C42.4297 85.2906 44.1663 90.338 45.6944 93.6283C43.3105 90.8459 39.9424 86.0587 38.1212 79.4437C41.8859 76.4074 46.7836 71.8068 50.1047 66.1245C50.2504 65.8658 50.1674 65.5398 49.9088 65.3877C49.658 65.2341 49.332 65.3313 49.1737 65.5821C46.0533 70.918 41.4972 75.2914 37.8767 78.2665C37.8078 77.964 37.7576 77.6332 37.6887 77.3213C40.5364 73.879 43.5581 69.2862 43.5581 65.1213C43.5581 64.8266 43.3215 64.582 43.0237 64.582C42.7244 64.582 42.4893 64.825 42.4893 65.1213C42.4893 68.6764 39.9816 72.7285 37.4254 75.9466C37.3345 75.4309 37.1887 74.9669 37.126 74.4355C37.0915 74.1643 36.8627 73.9637 36.5916 73.9637C36.5696 73.9637 36.5508 73.9652 36.5289 73.9652C36.2295 74.0029 36.0227 74.2709 36.0571 74.5656C36.1606 75.423 36.3769 76.1911 36.5367 77.0062C34.9741 78.8528 33.5369 80.3231 32.7298 81.0896C32.7298 81.0724 32.7298 81.0583 32.7298 81.0411C34.0071 78.7493 36.5571 73.6 36.9677 68.3974C36.9959 68.1027 36.7734 67.844 36.474 67.8205C36.4615 67.819 36.4458 67.819 36.4333 67.819C36.1559 67.819 35.9192 68.0337 35.8988 68.3143C35.5869 72.2112 33.9742 76.1551 32.7031 78.7509C32.5637 68.5338 32.5292 58.3417 32.5354 49.3363C34.0087 47.8565 40.3092 41.0033 41.983 30.3786C42.0332 30.0855 41.831 29.808 41.5395 29.7641C41.2339 29.7218 40.9706 29.9162 40.9282 30.2109C39.6713 38.1755 35.6277 44.0208 33.2517 46.8894C34.4193 43.5239 36.4537 36.655 35.9537 30.7705C35.9333 30.4758 35.6904 30.2313 35.3785 30.2814C35.0792 30.3049 34.8566 30.5651 34.8848 30.8614C35.3158 35.9919 33.6968 42.03 32.5511 45.5585C32.5919 30.3285 32.7596 19.3323 32.7674 19.0141C32.7674 18.9999 32.7517 18.9905 32.7517 18.9764C34.3989 17.5798 39.0742 12.6327 40.0615 0.592488C40.0882 0.293091 39.8656 0.0375844 39.5678 0.012504C39.2466 -0.0611697 39.0115 0.202174 38.9911 0.501572C38.2466 9.56187 35.3158 14.4463 33.3645 16.7725C34.4209 14.1876 35.8299 9.62144 35.3863 4.31536C35.366 4.02067 35.1089 3.74949 34.8111 3.82473C34.5118 3.84981 34.2892 4.11159 34.3174 4.40628C34.7892 10.0368 33.0182 14.9353 32.0245 17.1753C30.907 14.2958 28.343 6.98329 28.6972 0.879346C28.7191 0.584651 28.4887 0.329144 28.1972 0.311901C28.1831 0.308766 28.169 0.308767 28.1627 0.308767C27.8775 0.308767 27.6408 0.531355 27.6283 0.816645C27.2804 6.71211 29.4965 13.534 30.7472 16.865C28.4621 14.0262 24.3009 8.3925 23.6474 4.17428C23.6066 3.88273 23.3277 3.67425 23.0361 3.72597C22.7431 3.77143 22.544 4.04575 22.591 4.34044C23.5079 10.3096 30.6704 18.5077 31.3584 19.2899C31.3318 21.1443 31.1782 32.2675 31.1515 47.0775C29.2896 44.1415 25.7679 38.0281 24.9059 32.4383C24.8714 32.1436 24.5721 31.943 24.2931 31.99C24.0016 32.0355 23.801 32.3114 23.8496 32.6061C24.4812 36.749 26.4685 41.0676 28.2599 44.3124C26.0986 41.6444 23.5424 38.152 21.7165 34.7003C22.1412 33.3538 22.508 31.9885 22.696 30.6404C22.7368 30.3488 22.5299 30.0776 22.2384 30.0369C22.2102 30.0322 22.182 30.0306 22.1632 30.0306C21.8983 30.0306 21.6695 30.225 21.6272 30.4962C21.5018 31.4069 21.2949 32.3302 21.0441 33.2535C20.2793 31.6044 19.6618 29.982 19.4674 28.5195C19.4267 28.2264 19.1477 27.9881 18.864 28.0571C18.571 28.0947 18.3625 28.3628 18.3986 28.6575C18.6493 30.5589 19.4815 32.6625 20.5583 34.7818C19.3436 38.4592 17.5083 41.9313 16.1401 44.2355C16.6808 41.4422 17.3908 36.2866 16.3564 31.5872C16.2937 31.2988 16.0367 31.0793 15.7091 31.1781C15.4239 31.2408 15.2373 31.5276 15.3 31.816C16.662 37.9435 14.8628 45.1667 14.6747 45.8956C11.4163 42.1727 11.4038 34.4119 11.4038 34.3319C11.41 34.0372 11.1671 33.7927 10.874 33.7911C10.8678 33.7911 10.8678 33.7911 10.8678 33.7911C10.5762 33.7911 10.3333 34.031 10.3333 34.3256C10.327 34.6 10.3553 39.8214 12.2235 43.944C10.0982 41.425 7.41504 37.1519 6.31167 30.5589C6.26935 30.2971 6.04053 30.1106 5.7835 30.1106C5.75528 30.1106 5.72707 30.1137 5.69259 30.1168C5.39951 30.1686 5.20517 30.4429 5.25532 30.7376C6.97776 41.0268 12.2987 45.9332 13.9945 47.2671C13.4318 56.2961 13.9177 65.1996 15.0085 73.7035C10.874 68.33 10.4791 60.334 10.4728 60.2431C10.465 59.9547 10.222 59.7258 9.93679 59.7258C9.93053 59.7258 9.92426 59.7258 9.91642 59.7258C9.61707 59.7384 9.38825 59.986 9.40235 60.2839C9.41646 60.6397 9.72835 67.9945 13.5008 73.5546C10.0543 71.1061 3.96231 66.1762 1.02523 60.0315C0.892007 59.765 0.551905 59.6412 0.308976 59.7776C0.0378363 59.9077 -0.0734393 60.229 0.050376 60.4971C4.24599 69.2736 14.333 75.4842 15.3408 76.0877C16.8485 86.5932 19.2527 96.3589 21.8701 104.813C17.0209 100.419 15.0352 93.1643 15.0148 93.0859C14.938 92.7975 14.659 92.6282 14.355 92.7003C14.0682 92.7771 13.8958 93.0734 13.9725 93.3571C14.0556 93.6737 15.7232 99.6554 19.7652 104.192C16.0084 101.358 10.1108 96.2711 6.32421 89.8067C6.16434 89.5527 5.83835 89.4508 5.58758 89.6123C5.33055 89.7643 5.24748 90.0904 5.39324 90.3475C11.3191 100.474 22.3371 107.325 22.7117 107.56C27.9637 123.756 33.584 134.42 33.6952 134.633C33.8206 134.868 34.062 135 34.3127 135C34.424 135 34.5369 134.976 34.6387 134.917C34.6607 134.906 34.6607 134.882 34.6732 134.871C34.75 134.906 34.8205 134.931 34.902 134.94C34.9303 134.944 34.9381 134.998 34.9726 134.998C35.0133 134.998 35.0556 134.997 35.098 134.989C35.3064 134.947 35.4584 134.81 35.5634 134.638C35.7358 134.376 40.8154 126.794 47.3243 115.1C49.6988 113.569 52.5606 111.377 54.667 108.667C54.8473 108.43 54.8065 108.093 54.5699 107.913C54.3411 107.736 54.0072 107.771 53.8191 108.006C52.3114 109.954 50.3461 111.644 48.4763 112.995C49.2066 111.663 49.948 110.293 50.7003 108.872C51.451 107.761 52.1594 106.596 52.7064 105.357C52.7409 105.28 52.6311 105.234 52.6311 105.159C54.7 101.132 56.8127 96.8637 58.8971 92.3366C59.4817 92.183 69.5876 89.5543 75.5433 84.3187C75.7658 84.1244 75.7862 83.7842 75.5903 83.5601C75.3897 83.3312 75.0558 83.314 74.8333 83.513C70.7552 87.0948 64.5174 89.443 61.0866 90.5544C63.5598 89.1342 67.9012 86.2954 70.7709 82.4393C70.9511 82.2026 70.8963 81.8656 70.6596 81.6884C70.4167 81.5082 70.0829 81.563 69.9089 81.7982C66.9561 85.7624 62.1837 88.7188 59.9472 89.9665C63.0457 83.0741 66.0189 75.7851 68.561 68.2861C68.63 68.2689 68.7068 68.2641 68.7695 68.2156C68.8321 68.1701 68.7632 68.087 68.7977 68.0275C69.5766 67.6622 76.3833 64.3955 80.4269 59.1835C80.6072 58.9468 80.5648 58.6098 80.3297 58.4295C80.0993 58.2492 79.7592 58.2853 79.579 58.5251C77.424 61.3075 74.3678 63.5365 71.9573 65.035C74.0622 62.9455 76.8143 59.7854 78.4255 56.1628C78.543 55.8917 78.4255 55.5719 78.1481 55.4528C77.8832 55.3415 77.5572 55.4496 77.4397 55.7239C75.3207 60.483 71.0201 64.5507 69.2632 66.0821C72.7911 55.2772 75.3897 44.2011 76.1545 33.6218C77.0698 32.9635 82.9675 28.6042 85.9406 22.8796ZM57.8283 91.288C54.6812 98.16 51.4635 104.499 48.423 110.141C46.8463 112.127 45.2273 113.743 44.1083 114.76C46.0533 109.109 47.5453 103.226 48.6581 97.2681C49.6376 97.0878 51.5967 96.1567 55.703 92.5436C55.9256 92.3492 55.946 92.009 55.7516 91.7864C55.551 91.556 55.2172 91.5356 54.9946 91.7363C52.244 94.1518 50.5623 95.2726 49.5483 95.804C50.8883 94.3948 53.6953 91.1626 55.6544 87.2265C56.5368 89.0198 57.3612 90.4995 57.8283 91.288ZM47.3181 96.9075C46.2069 102.892 44.7117 108.799 42.7463 114.461C42.121 110.995 41.1963 104.137 42.4893 98.7071C42.5582 98.4186 42.3843 98.1271 42.0927 98.0597C41.8012 97.9797 41.5081 98.1647 41.447 98.4563C40.1415 103.908 40.9612 110.525 41.6069 114.191C39.5726 110.841 36.1951 104.317 36.1951 97.8073C36.1951 97.5126 35.96 97.2681 35.6606 97.2681C35.3613 97.2681 35.1262 97.511 35.1262 97.8073C35.1262 106.56 40.7747 115.06 41.9752 116.774C40.1195 121.742 37.8344 126.435 35.1324 130.774C33.7579 120.45 33.0762 102.192 32.7643 83.3453C32.874 83.2795 34.7014 82.1258 37.231 80.1523C40.0161 89.769 45.9561 95.6614 47.3181 96.9075ZM36.8079 78.3684C36.8564 78.58 36.8831 78.812 36.9332 79.0221C36.018 79.7463 35.1826 80.3796 34.4804 80.8827C35.1465 80.2118 35.938 79.3575 36.8079 78.3684ZM31.139 49.3253C31.1312 58.5063 31.1672 68.9209 31.3114 79.3466C29.4918 75.0672 29.2269 71.5309 29.2206 71.4885C29.1987 71.186 28.9009 70.9321 28.6517 70.9885C28.3524 71.0057 28.1298 71.2644 28.1502 71.5591C28.1643 71.7362 28.437 75.3901 30.3679 79.8748C28.0123 76.8558 24.5313 71.871 23.942 68.0416C23.9013 67.75 23.616 67.5384 23.3308 67.5948C23.0393 67.6403 22.8371 67.9146 22.8857 68.2093C23.7258 73.6564 29.7833 80.9862 31.3616 82.8171C31.4023 85.543 31.4587 88.2579 31.5214 90.9431C31.5151 90.9572 31.4869 90.9494 31.4869 90.9651C30.2143 96.5157 26.1864 102.402 24.1223 105.162C25.047 102.518 26.5406 97.3888 26.1503 92.4824C26.13 92.1877 25.8384 91.9432 25.5751 91.9886C25.2758 92.0106 25.0595 92.2708 25.0815 92.5655C25.4294 97.033 24.1082 101.812 23.2132 104.468C20.5928 96.0094 18.1838 86.2249 16.6902 75.7115C18.2465 73.9417 24.0047 67.0885 25.8949 60.3074C25.9701 60.0221 25.804 59.7274 25.5203 59.6475C25.2429 59.5644 24.9357 59.7384 24.8526 60.019C23.5675 64.6541 20.2887 69.4476 17.9817 72.4306C19.2872 69.769 20.8858 65.8313 21.2338 61.8247C21.262 61.5301 21.0394 61.2698 20.7463 61.2448C20.726 61.2432 20.7119 61.2432 20.6978 61.2432C20.4204 61.2432 20.1837 61.4548 20.1633 61.7354C19.7731 66.2546 17.6541 70.8129 16.3423 73.2645C15.2938 64.9504 14.8346 56.2553 15.3753 47.4427C15.8893 46.7028 19.1963 41.7918 21.2526 36.1001C24.7194 42.2746 30.0262 48.1371 31.139 49.3253ZM24.011 107.07C25.1912 105.607 29.3962 100.155 31.5966 94.2475C31.9869 109.592 32.6734 123.56 33.8614 131.856C31.9853 127.992 27.8947 119.061 24.011 107.07ZM39.9252 125.065C41.1336 122.591 42.2401 120.036 43.2243 117.415C43.5519 117.256 44.1365 116.953 44.8982 116.533C43.0723 119.762 41.3906 122.643 39.9252 125.065ZM45.9624 114.65C45.8229 114.74 45.6771 114.828 45.5455 114.907C45.7398 114.719 45.9483 114.511 46.1645 114.295C46.094 114.42 46.0329 114.528 45.9624 114.65Z"/>
</mask>
<path d="M85.9406 22.8796C86.0738 22.6178 85.9767 22.2917 85.7118 22.1569C85.4485 22.0253 85.1225 22.1256 84.983 22.3858C82.8922 26.4222 79.1605 29.8237 77.0149 31.5825C78.3706 29.3299 81.0946 24.2809 81.7043 19.1003C81.7387 18.8056 81.5224 18.5375 81.2325 18.503C80.9676 18.5093 80.6761 18.6802 80.6354 18.9749C80.0022 24.3766 76.877 29.772 75.7721 31.5433C74.6891 28.7891 72.0216 21.3167 72.382 15.0937C72.404 14.799 72.1752 14.5419 71.8758 14.5294C71.8695 14.5247 71.8554 14.5247 71.8476 14.5247C71.5624 14.5247 71.3257 14.7472 71.3132 15.031C70.9731 20.8919 73.1469 27.648 74.4038 31.0088C72.1187 28.1747 67.9435 22.5206 67.2915 18.2977C67.2555 18.0061 66.9781 17.8259 66.6803 17.8509C66.3872 17.8948 66.1866 18.1707 66.2352 18.4654C67.0893 24.0693 73.4525 31.6279 74.8004 33.1766C74.0982 43.2997 71.6674 53.8993 68.3604 64.2873C67.7413 60.6428 67.0141 54.3398 68.2146 49.2657C68.2836 48.9789 68.1049 48.6858 67.8181 48.6168C67.5329 48.5603 67.2351 48.7249 67.1724 49.0149C65.8183 54.6988 66.7696 61.6821 67.4232 65.2279C65.3951 61.9078 61.9565 55.3242 61.9565 48.7563C61.9565 48.4616 61.7198 48.2186 61.422 48.2186C61.1227 48.2186 60.8876 48.4616 60.8876 48.7563C60.8876 56.8745 65.7556 64.778 67.4373 67.2656C64.9563 74.644 62.0474 81.8248 59.0116 88.6341C58.3862 85.1386 57.4897 78.3574 58.7686 72.9777C58.8376 72.6893 58.6652 72.3961 58.3737 72.3319C58.0869 72.2519 57.7891 72.4353 57.7264 72.7269C56.2814 78.7619 57.4333 86.2515 58.0743 89.5386C57.5524 88.5965 56.8989 87.355 56.2406 85.9568C56.4694 85.4113 56.7124 84.8689 56.9004 84.3109C56.9976 84.0288 56.844 83.7231 56.5603 83.629C56.2829 83.5318 55.971 83.687 55.888 83.9692C55.8174 84.1839 55.714 84.3893 55.6294 84.6009C54.3097 81.6179 53.1295 78.2273 53.1844 75.5908C53.1907 75.2961 52.954 75.0484 52.6625 75.0421C52.6562 75.0421 52.6562 75.0421 52.6484 75.0421C52.3569 75.0421 52.1218 75.2741 52.1139 75.5704C52.045 78.7007 53.5308 82.7293 55.0589 86.0132C53.3427 89.7549 50.6485 93.0091 49.1408 94.6675C51.4667 80.8451 51.9118 67.007 51.6344 55.6205C53.9963 53.9181 62.0537 47.623 67.5078 37.3541C67.6457 37.0908 67.5485 36.7631 67.2837 36.6252C67.0407 36.492 66.7007 36.5939 66.5612 36.8478C62.6492 44.2136 57.3502 49.5071 53.8834 52.4698C55.9052 49.6419 58.4207 44.7121 58.6511 37.3447C58.6636 37.0469 58.427 36.7992 58.1292 36.7882C58.1292 36.7882 58.1213 36.7882 58.1135 36.7882C57.822 36.7882 57.5853 37.0187 57.5791 37.3102C57.2938 46.2937 53.4101 51.5982 51.5905 53.6109C51.1532 39.8747 49.7646 30.2908 49.6878 29.7751C50.7426 28.2186 55.8629 20.4029 56.8848 13.1531C56.9255 12.8584 56.7171 12.5888 56.4255 12.5449C56.1136 12.5073 55.8566 12.7016 55.8143 12.9995C55.0714 18.304 51.9384 24.0756 50.0483 27.184C50.5827 24.328 51.2081 19.3714 50.2081 14.8319C50.1454 14.5435 49.8947 14.3319 49.5608 14.4259C49.2756 14.4886 49.0891 14.777 49.1518 15.0686C50.2489 20.0016 49.2913 25.6572 48.7772 28.0759C43.6992 22.7918 43.2964 13.5371 43.2886 13.4431C43.2823 13.1515 43.0472 12.9211 42.7541 12.9211C42.7479 12.9211 42.7416 12.9211 42.7338 12.9211C42.4422 12.9321 42.2072 13.1829 42.2197 13.4776C42.226 13.7487 42.4422 18.1002 44.207 22.6178C42.519 20.0392 40.9549 17.1456 40.5803 14.7159C40.5396 14.4212 40.2465 14.2206 39.9691 14.2692C39.676 14.3146 39.4769 14.5889 39.524 14.8836C40.4487 20.8622 47.6582 29.0979 48.318 29.8378C48.318 29.866 48.2898 29.888 48.2976 29.9146C48.3321 30.1576 49.7223 39.5173 50.1878 53.0231C48.4873 50.0432 45.1866 43.665 44.6035 37.9701C44.5753 37.6958 44.3387 37.4873 44.0691 37.4873C44.0487 37.4873 44.033 37.4905 44.0127 37.4905C43.7196 37.5234 43.5049 37.7852 43.5331 38.0799C44.055 43.1837 46.583 48.6528 48.4026 52.0308C46.0533 48.9836 42.7886 44.1964 42.2197 40.5033C42.1789 40.2086 41.8859 40.0079 41.6069 40.0549C41.3154 40.1004 41.1148 40.3747 41.1633 40.6694C42.1006 46.8047 49.7144 55.3681 50.0342 55.7286C50.0827 55.7788 50.1454 55.7741 50.2019 55.8055C50.216 55.865 50.1329 55.9136 50.1674 55.9685C50.1878 56.0014 50.2301 55.9904 50.2504 56.0139C50.5153 67.4506 50.0342 81.3154 47.6535 95.1065C46.1739 92.368 43.3042 86.1669 44.5894 81.2777C44.6662 80.9925 44.4923 80.6978 44.207 80.621C43.881 80.541 43.6161 80.7181 43.5472 81.0066C42.4297 85.2906 44.1663 90.338 45.6944 93.6283C43.3105 90.8459 39.9424 86.0587 38.1212 79.4437C41.8859 76.4074 46.7836 71.8068 50.1047 66.1245C50.2504 65.8658 50.1674 65.5398 49.9088 65.3877C49.658 65.2341 49.332 65.3313 49.1737 65.5821C46.0533 70.918 41.4972 75.2914 37.8767 78.2665C37.8078 77.964 37.7576 77.6332 37.6887 77.3213C40.5364 73.879 43.5581 69.2862 43.5581 65.1213C43.5581 64.8266 43.3215 64.582 43.0237 64.582C42.7244 64.582 42.4893 64.825 42.4893 65.1213C42.4893 68.6764 39.9816 72.7285 37.4254 75.9466C37.3345 75.4309 37.1887 74.9669 37.126 74.4355C37.0915 74.1643 36.8627 73.9637 36.5916 73.9637C36.5696 73.9637 36.5508 73.9652 36.5289 73.9652C36.2295 74.0029 36.0227 74.2709 36.0571 74.5656C36.1606 75.423 36.3769 76.1911 36.5367 77.0062C34.9741 78.8528 33.5369 80.3231 32.7298 81.0896C32.7298 81.0724 32.7298 81.0583 32.7298 81.0411C34.0071 78.7493 36.5571 73.6 36.9677 68.3974C36.9959 68.1027 36.7734 67.844 36.474 67.8205C36.4615 67.819 36.4458 67.819 36.4333 67.819C36.1559 67.819 35.9192 68.0337 35.8988 68.3143C35.5869 72.2112 33.9742 76.1551 32.7031 78.7509C32.5637 68.5338 32.5292 58.3417 32.5354 49.3363C34.0087 47.8565 40.3092 41.0033 41.983 30.3786C42.0332 30.0855 41.831 29.808 41.5395 29.7641C41.2339 29.7218 40.9706 29.9162 40.9282 30.2109C39.6713 38.1755 35.6277 44.0208 33.2517 46.8894C34.4193 43.5239 36.4537 36.655 35.9537 30.7705C35.9333 30.4758 35.6904 30.2313 35.3785 30.2814C35.0792 30.3049 34.8566 30.5651 34.8848 30.8614C35.3158 35.9919 33.6968 42.03 32.5511 45.5585C32.5919 30.3285 32.7596 19.3323 32.7674 19.0141C32.7674 18.9999 32.7517 18.9905 32.7517 18.9764C34.3989 17.5798 39.0742 12.6327 40.0615 0.592488C40.0882 0.293091 39.8656 0.0375844 39.5678 0.012504C39.2466 -0.0611697 39.0115 0.202174 38.9911 0.501572C38.2466 9.56187 35.3158 14.4463 33.3645 16.7725C34.4209 14.1876 35.8299 9.62144 35.3863 4.31536C35.366 4.02067 35.1089 3.74949 34.8111 3.82473C34.5118 3.84981 34.2892 4.11159 34.3174 4.40628C34.7892 10.0368 33.0182 14.9353 32.0245 17.1753C30.907 14.2958 28.343 6.98329 28.6972 0.879346C28.7191 0.584651 28.4887 0.329144 28.1972 0.311901C28.1831 0.308766 28.169 0.308767 28.1627 0.308767C27.8775 0.308767 27.6408 0.531355 27.6283 0.816645C27.2804 6.71211 29.4965 13.534 30.7472 16.865C28.4621 14.0262 24.3009 8.3925 23.6474 4.17428C23.6066 3.88273 23.3277 3.67425 23.0361 3.72597C22.7431 3.77143 22.544 4.04575 22.591 4.34044C23.5079 10.3096 30.6704 18.5077 31.3584 19.2899C31.3318 21.1443 31.1782 32.2675 31.1515 47.0775C29.2896 44.1415 25.7679 38.0281 24.9059 32.4383C24.8714 32.1436 24.5721 31.943 24.2931 31.99C24.0016 32.0355 23.801 32.3114 23.8496 32.6061C24.4812 36.749 26.4685 41.0676 28.2599 44.3124C26.0986 41.6444 23.5424 38.152 21.7165 34.7003C22.1412 33.3538 22.508 31.9885 22.696 30.6404C22.7368 30.3488 22.5299 30.0776 22.2384 30.0369C22.2102 30.0322 22.182 30.0306 22.1632 30.0306C21.8983 30.0306 21.6695 30.225 21.6272 30.4962C21.5018 31.4069 21.2949 32.3302 21.0441 33.2535C20.2793 31.6044 19.6618 29.982 19.4674 28.5195C19.4267 28.2264 19.1477 27.9881 18.864 28.0571C18.571 28.0947 18.3625 28.3628 18.3986 28.6575C18.6493 30.5589 19.4815 32.6625 20.5583 34.7818C19.3436 38.4592 17.5083 41.9313 16.1401 44.2355C16.6808 41.4422 17.3908 36.2866 16.3564 31.5872C16.2937 31.2988 16.0367 31.0793 15.7091 31.1781C15.4239 31.2408 15.2373 31.5276 15.3 31.816C16.662 37.9435 14.8628 45.1667 14.6747 45.8956C11.4163 42.1727 11.4038 34.4119 11.4038 34.3319C11.41 34.0372 11.1671 33.7927 10.874 33.7911C10.8678 33.7911 10.8678 33.7911 10.8678 33.7911C10.5762 33.7911 10.3333 34.031 10.3333 34.3256C10.327 34.6 10.3553 39.8214 12.2235 43.944C10.0982 41.425 7.41504 37.1519 6.31167 30.5589C6.26935 30.2971 6.04053 30.1106 5.7835 30.1106C5.75528 30.1106 5.72707 30.1137 5.69259 30.1168C5.39951 30.1686 5.20517 30.4429 5.25532 30.7376C6.97776 41.0268 12.2987 45.9332 13.9945 47.2671C13.4318 56.2961 13.9177 65.1996 15.0085 73.7035C10.874 68.33 10.4791 60.334 10.4728 60.2431C10.465 59.9547 10.222 59.7258 9.93679 59.7258C9.93053 59.7258 9.92426 59.7258 9.91642 59.7258C9.61707 59.7384 9.38825 59.986 9.40235 60.2839C9.41646 60.6397 9.72835 67.9945 13.5008 73.5546C10.0543 71.1061 3.96231 66.1762 1.02523 60.0315C0.892007 59.765 0.551905 59.6412 0.308976 59.7776C0.0378363 59.9077 -0.0734393 60.229 0.050376 60.4971C4.24599 69.2736 14.333 75.4842 15.3408 76.0877C16.8485 86.5932 19.2527 96.3589 21.8701 104.813C17.0209 100.419 15.0352 93.1643 15.0148 93.0859C14.938 92.7975 14.659 92.6282 14.355 92.7003C14.0682 92.7771 13.8958 93.0734 13.9725 93.3571C14.0556 93.6737 15.7232 99.6554 19.7652 104.192C16.0084 101.358 10.1108 96.2711 6.32421 89.8067C6.16434 89.5527 5.83835 89.4508 5.58758 89.6123C5.33055 89.7643 5.24748 90.0904 5.39324 90.3475C11.3191 100.474 22.3371 107.325 22.7117 107.56C27.9637 123.756 33.584 134.42 33.6952 134.633C33.8206 134.868 34.062 135 34.3127 135C34.424 135 34.5369 134.976 34.6387 134.917C34.6607 134.906 34.6607 134.882 34.6732 134.871C34.75 134.906 34.8205 134.931 34.902 134.94C34.9303 134.944 34.9381 134.998 34.9726 134.998C35.0133 134.998 35.0556 134.997 35.098 134.989C35.3064 134.947 35.4584 134.81 35.5634 134.638C35.7358 134.376 40.8154 126.794 47.3243 115.1C49.6988 113.569 52.5606 111.377 54.667 108.667C54.8473 108.43 54.8065 108.093 54.5699 107.913C54.3411 107.736 54.0072 107.771 53.8191 108.006C52.3114 109.954 50.3461 111.644 48.4763 112.995C49.2066 111.663 49.948 110.293 50.7003 108.872C51.451 107.761 52.1594 106.596 52.7064 105.357C52.7409 105.28 52.6311 105.234 52.6311 105.159C54.7 101.132 56.8127 96.8637 58.8971 92.3366C59.4817 92.183 69.5876 89.5543 75.5433 84.3187C75.7658 84.1244 75.7862 83.7842 75.5903 83.5601C75.3897 83.3312 75.0558 83.314 74.8333 83.513C70.7552 87.0948 64.5174 89.443 61.0866 90.5544C63.5598 89.1342 67.9012 86.2954 70.7709 82.4393C70.9511 82.2026 70.8963 81.8656 70.6596 81.6884C70.4167 81.5082 70.0829 81.563 69.9089 81.7982C66.9561 85.7624 62.1837 88.7188 59.9472 89.9665C63.0457 83.0741 66.0189 75.7851 68.561 68.2861C68.63 68.2689 68.7068 68.2641 68.7695 68.2156C68.8321 68.1701 68.7632 68.087 68.7977 68.0275C69.5766 67.6622 76.3833 64.3955 80.4269 59.1835C80.6072 58.9468 80.5648 58.6098 80.3297 58.4295C80.0993 58.2492 79.7592 58.2853 79.579 58.5251C77.424 61.3075 74.3678 63.5365 71.9573 65.035C74.0622 62.9455 76.8143 59.7854 78.4255 56.1628C78.543 55.8917 78.4255 55.5719 78.1481 55.4528C77.8832 55.3415 77.5572 55.4496 77.4397 55.7239C75.3207 60.483 71.0201 64.5507 69.2632 66.0821C72.7911 55.2772 75.3897 44.2011 76.1545 33.6218C77.0698 32.9635 82.9675 28.6042 85.9406 22.8796ZM57.8283 91.288C54.6812 98.16 51.4635 104.499 48.423 110.141C46.8463 112.127 45.2273 113.743 44.1083 114.76C46.0533 109.109 47.5453 103.226 48.6581 97.2681C49.6376 97.0878 51.5967 96.1567 55.703 92.5436C55.9256 92.3492 55.946 92.009 55.7516 91.7864C55.551 91.556 55.2172 91.5356 54.9946 91.7363C52.244 94.1518 50.5623 95.2726 49.5483 95.804C50.8883 94.3948 53.6953 91.1626 55.6544 87.2265C56.5368 89.0198 57.3612 90.4995 57.8283 91.288ZM47.3181 96.9075C46.2069 102.892 44.7117 108.799 42.7463 114.461C42.121 110.995 41.1963 104.137 42.4893 98.7071C42.5582 98.4186 42.3843 98.1271 42.0927 98.0597C41.8012 97.9797 41.5081 98.1647 41.447 98.4563C40.1415 103.908 40.9612 110.525 41.6069 114.191C39.5726 110.841 36.1951 104.317 36.1951 97.8073C36.1951 97.5126 35.96 97.2681 35.6606 97.2681C35.3613 97.2681 35.1262 97.511 35.1262 97.8073C35.1262 106.56 40.7747 115.06 41.9752 116.774C40.1195 121.742 37.8344 126.435 35.1324 130.774C33.7579 120.45 33.0762 102.192 32.7643 83.3453C32.874 83.2795 34.7014 82.1258 37.231 80.1523C40.0161 89.769 45.9561 95.6614 47.3181 96.9075ZM36.8079 78.3684C36.8564 78.58 36.8831 78.812 36.9332 79.0221C36.018 79.7463 35.1826 80.3796 34.4804 80.8827C35.1465 80.2118 35.938 79.3575 36.8079 78.3684ZM31.139 49.3253C31.1312 58.5063 31.1672 68.9209 31.3114 79.3466C29.4918 75.0672 29.2269 71.5309 29.2206 71.4885C29.1987 71.186 28.9009 70.9321 28.6517 70.9885C28.3524 71.0057 28.1298 71.2644 28.1502 71.5591C28.1643 71.7362 28.437 75.3901 30.3679 79.8748C28.0123 76.8558 24.5313 71.871 23.942 68.0416C23.9013 67.75 23.616 67.5384 23.3308 67.5948C23.0393 67.6403 22.8371 67.9146 22.8857 68.2093C23.7258 73.6564 29.7833 80.9862 31.3616 82.8171C31.4023 85.543 31.4587 88.2579 31.5214 90.9431C31.5151 90.9572 31.4869 90.9494 31.4869 90.9651C30.2143 96.5157 26.1864 102.402 24.1223 105.162C25.047 102.518 26.5406 97.3888 26.1503 92.4824C26.13 92.1877 25.8384 91.9432 25.5751 91.9886C25.2758 92.0106 25.0595 92.2708 25.0815 92.5655C25.4294 97.033 24.1082 101.812 23.2132 104.468C20.5928 96.0094 18.1838 86.2249 16.6902 75.7115C18.2465 73.9417 24.0047 67.0885 25.8949 60.3074C25.9701 60.0221 25.804 59.7274 25.5203 59.6475C25.2429 59.5644 24.9357 59.7384 24.8526 60.019C23.5675 64.6541 20.2887 69.4476 17.9817 72.4306C19.2872 69.769 20.8858 65.8313 21.2338 61.8247C21.262 61.5301 21.0394 61.2698 20.7463 61.2448C20.726 61.2432 20.7119 61.2432 20.6978 61.2432C20.4204 61.2432 20.1837 61.4548 20.1633 61.7354C19.7731 66.2546 17.6541 70.8129 16.3423 73.2645C15.2938 64.9504 14.8346 56.2553 15.3753 47.4427C15.8893 46.7028 19.1963 41.7918 21.2526 36.1001C24.7194 42.2746 30.0262 48.1371 31.139 49.3253ZM24.011 107.07C25.1912 105.607 29.3962 100.155 31.5966 94.2475C31.9869 109.592 32.6734 123.56 33.8614 131.856C31.9853 127.992 27.8947 119.061 24.011 107.07ZM39.9252 125.065C41.1336 122.591 42.2401 120.036 43.2243 117.415C43.5519 117.256 44.1365 116.953 44.8982 116.533C43.0723 119.762 41.3906 122.643 39.9252 125.065ZM45.9624 114.65C45.8229 114.74 45.6771 114.828 45.5455 114.907C45.7398 114.719 45.9483 114.511 46.1645 114.295C46.094 114.42 46.0329 114.528 45.9624 114.65Z" fill="black" stroke="black" stroke-width="10" mask="url(#path-1-inside-1_77_11)"/>
<path d="M128.028 52.5483H120.452C120.412 52.081 120.248 51.6783 119.96 51.3402C119.671 51.0021 119.298 50.7436 118.841 50.5646C118.393 50.3757 117.896 50.2812 117.349 50.2812C116.643 50.2812 116.037 50.4105 115.53 50.669C115.023 50.9276 114.774 51.2955 114.784 51.7727C114.774 52.1108 114.918 52.424 115.217 52.7124C115.525 53.0007 116.116 53.2244 116.991 53.3835L121.645 54.2188C123.991 54.6463 125.737 55.3672 126.88 56.3814C128.033 57.3857 128.615 58.733 128.625 60.4233C128.615 62.054 128.128 63.4709 127.163 64.674C126.209 65.8672 124.901 66.7919 123.241 67.4482C121.59 68.0945 119.706 68.4176 117.588 68.4176C114.088 68.4176 111.349 67.7017 109.37 66.2699C107.401 64.8381 106.303 62.9489 106.074 60.6023H114.247C114.357 61.3281 114.714 61.8899 115.321 62.2876C115.938 62.6754 116.713 62.8693 117.648 62.8693C118.403 62.8693 119.025 62.7401 119.512 62.4815C120.009 62.223 120.263 61.8551 120.273 61.3778C120.263 60.9403 120.044 60.5923 119.616 60.3338C119.199 60.0753 118.543 59.8665 117.648 59.7074L113.591 58.9915C111.254 58.5838 109.504 57.8082 108.341 56.6648C107.178 55.5213 106.601 54.0497 106.611 52.25C106.601 50.6591 107.018 49.3118 107.864 48.2081C108.719 47.0945 109.937 46.2493 111.518 45.6726C113.109 45.0859 114.993 44.7926 117.17 44.7926C120.482 44.7926 123.092 45.4787 125.001 46.8509C126.92 48.223 127.929 50.1222 128.028 52.5483ZM142.757 68.4176C140.311 68.4176 138.203 67.9503 136.433 67.0156C134.673 66.071 133.316 64.7187 132.361 62.9588C131.417 61.1889 130.944 59.071 130.944 56.6051C130.944 54.2386 131.422 52.1705 132.376 50.4006C133.331 48.6307 134.678 47.2536 136.418 46.2692C138.158 45.2848 140.211 44.7926 142.578 44.7926C144.308 44.7926 145.874 45.0611 147.276 45.598C148.678 46.1349 149.876 46.9155 150.87 47.9396C151.865 48.9538 152.63 50.1868 153.167 51.6385C153.704 53.0902 153.973 54.7259 153.973 56.5455V58.4545H133.51V53.9205H146.396C146.386 53.2642 146.217 52.6875 145.889 52.1903C145.571 51.6832 145.138 51.2905 144.591 51.0121C144.054 50.7237 143.443 50.5795 142.757 50.5795C142.091 50.5795 141.479 50.7237 140.922 51.0121C140.365 51.2905 139.918 51.6783 139.58 52.1754C139.252 52.6726 139.078 53.2543 139.058 53.9205V58.8125C139.058 59.5483 139.212 60.2045 139.52 60.7812C139.828 61.358 140.271 61.8104 140.848 62.1385C141.424 62.4666 142.12 62.6307 142.936 62.6307C143.502 62.6307 144.02 62.5511 144.487 62.392C144.964 62.233 145.372 62.0043 145.71 61.706C146.048 61.3977 146.297 61.0298 146.456 60.6023H153.973C153.714 62.1932 153.103 63.5753 152.138 64.7486C151.174 65.9119 149.896 66.8168 148.305 67.4631C146.724 68.0994 144.875 68.4176 142.757 68.4176ZM163.716 68.358C162.254 68.358 160.961 68.1193 159.838 67.642C158.724 67.1548 157.849 66.419 157.213 65.4347C156.577 64.4503 156.258 63.1974 156.258 61.6761C156.258 60.4233 156.472 59.3544 156.9 58.4695C157.327 57.5746 157.924 56.8438 158.689 56.277C159.455 55.7102 160.345 55.2777 161.359 54.9794C162.383 54.6811 163.487 54.4872 164.67 54.3977C165.953 54.2983 166.982 54.179 167.758 54.0398C168.543 53.8906 169.11 53.6868 169.458 53.4283C169.806 53.1598 169.98 52.8068 169.98 52.3693V52.3097C169.98 51.7131 169.751 51.2557 169.294 50.9375C168.836 50.6193 168.25 50.4602 167.534 50.4602C166.748 50.4602 166.107 50.6342 165.61 50.9822C165.123 51.3203 164.829 51.8423 164.73 52.5483H157.153C157.253 51.1562 157.695 49.8736 158.481 48.7003C159.276 47.517 160.434 46.5724 161.956 45.8665C163.477 45.1506 165.376 44.7926 167.653 44.7926C169.294 44.7926 170.765 44.9865 172.068 45.3743C173.371 45.7521 174.479 46.2841 175.394 46.9702C176.309 47.6463 177.005 48.4418 177.482 49.3565C177.969 50.2614 178.213 51.2457 178.213 52.3097V68H170.517V64.7784H170.338C169.881 65.6335 169.324 66.3246 168.667 66.8516C168.021 67.3786 167.28 67.7614 166.445 68C165.62 68.2386 164.71 68.358 163.716 68.358ZM166.4 63.1676C167.027 63.1676 167.613 63.0384 168.16 62.7798C168.717 62.5213 169.17 62.1484 169.518 61.6612C169.866 61.174 170.04 60.5824 170.04 59.8864V57.9773C169.821 58.0668 169.587 58.1513 169.339 58.2308C169.1 58.3104 168.841 58.3849 168.563 58.4545C168.295 58.5241 168.006 58.5888 167.698 58.6484C167.4 58.7081 167.086 58.7628 166.758 58.8125C166.122 58.9119 165.6 59.076 165.192 59.3047C164.795 59.5234 164.496 59.7969 164.297 60.125C164.108 60.4432 164.014 60.8011 164.014 61.1989C164.014 61.8352 164.238 62.3224 164.685 62.6605C165.133 62.9986 165.704 63.1676 166.4 63.1676ZM195.809 45.0909V51.0568H180.715V45.0909H195.809ZM183.638 39.6023H191.871V60.6321C191.871 60.9503 191.926 61.2188 192.035 61.4375C192.145 61.6463 192.314 61.8054 192.542 61.9148C192.771 62.0142 193.064 62.0639 193.422 62.0639C193.671 62.0639 193.959 62.0341 194.287 61.9744C194.625 61.9148 194.874 61.8651 195.033 61.8253L196.226 67.6122C195.858 67.7216 195.331 67.8558 194.645 68.0149C193.969 68.174 193.164 68.2784 192.229 68.3281C190.34 68.4276 188.754 68.2337 187.471 67.7464C186.189 67.2493 185.224 66.4687 184.578 65.4048C183.931 64.3409 183.618 63.0085 183.638 61.4077V39.6023ZM212.83 45.0909V51.0568H197.736V45.0909H212.83ZM200.66 39.6023H208.893V60.6321C208.893 60.9503 208.947 61.2188 209.057 61.4375C209.166 61.6463 209.335 61.8054 209.564 61.9148C209.792 62.0142 210.086 62.0639 210.444 62.0639C210.692 62.0639 210.981 62.0341 211.309 61.9744C211.647 61.9148 211.895 61.8651 212.055 61.8253L213.248 67.6122C212.88 67.7216 212.353 67.8558 211.667 68.0149C210.991 68.174 210.185 68.2784 209.251 68.3281C207.361 68.4276 205.775 68.2337 204.493 67.7464C203.21 67.2493 202.246 66.4687 201.599 65.4048C200.953 64.3409 200.64 63.0085 200.66 61.4077V39.6023ZM224.915 37.4545V68H216.682V37.4545H224.915ZM240.087 68.4176C237.641 68.4176 235.533 67.9503 233.763 67.0156C232.003 66.071 230.646 64.7187 229.691 62.9588C228.747 61.1889 228.274 59.071 228.274 56.6051C228.274 54.2386 228.752 52.1705 229.706 50.4006C230.661 48.6307 232.008 47.2536 233.748 46.2692C235.488 45.2848 237.541 44.7926 239.908 44.7926C241.638 44.7926 243.204 45.0611 244.606 45.598C246.008 46.1349 247.206 46.9155 248.2 47.9396C249.195 48.9538 249.96 50.1868 250.497 51.6385C251.034 53.0902 251.303 54.7259 251.303 56.5455V58.4545H230.84V53.9205H243.726C243.716 53.2642 243.547 52.6875 243.219 52.1903C242.901 51.6832 242.468 51.2905 241.921 51.0121C241.384 50.7237 240.773 50.5795 240.087 50.5795C239.421 50.5795 238.809 50.7237 238.252 51.0121C237.695 51.2905 237.248 51.6783 236.91 52.1754C236.582 52.6726 236.408 53.2543 236.388 53.9205V58.8125C236.388 59.5483 236.542 60.2045 236.85 60.7812C237.159 61.358 237.601 61.8104 238.178 62.1385C238.754 62.4666 239.45 62.6307 240.266 62.6307C240.833 62.6307 241.35 62.5511 241.817 62.392C242.294 62.233 242.702 62.0043 243.04 61.706C243.378 61.3977 243.627 61.0298 243.786 60.6023H251.303C251.044 62.1932 250.433 63.5753 249.468 64.7486C248.504 65.9119 247.226 66.8168 245.635 67.4631C244.054 68.0994 242.205 68.4176 240.087 68.4176Z" fill="black"/>
<path d="M111.394 110.899C108.935 110.533 106.903 109.733 105.297 108.498C103.693 107.254 102.554 105.687 101.881 103.797C101.209 101.898 101.046 99.7876 101.392 97.4666C101.737 95.1456 102.508 93.1794 103.703 91.568C104.899 89.9468 106.445 88.7798 108.341 88.0669C110.238 87.3442 112.416 87.166 114.875 87.5323C117.097 87.8634 118.96 88.553 120.462 89.6012C121.976 90.641 123.072 91.9602 123.748 93.5589C124.426 95.1478 124.624 96.9264 124.341 98.8948L116.788 97.7696C116.857 96.5635 116.647 95.6075 116.159 94.9014C115.683 94.187 114.992 93.7625 114.087 93.6277C113.379 93.5222 112.729 93.6364 112.136 93.9704C111.545 94.2945 111.04 94.8476 110.622 95.6298C110.206 96.4021 109.905 97.4078 109.72 98.647C109.536 99.8862 109.53 100.941 109.702 101.811C109.875 102.671 110.196 103.347 110.666 103.839C111.137 104.322 111.727 104.616 112.435 104.721C113.035 104.811 113.586 104.752 114.089 104.545C114.594 104.329 115.029 103.972 115.395 103.473C115.772 102.967 116.049 102.324 116.225 101.546L123.778 102.671C123.451 104.663 122.735 106.336 121.628 107.689C120.523 109.032 119.099 109.986 117.357 110.551C115.624 111.117 113.636 111.233 111.394 110.899ZM138.375 83.614L133.875 113.826L125.731 112.613L130.232 82.401L138.375 83.614ZM138.024 114.444L141.399 91.7851L149.542 92.9982L146.167 115.657L138.024 114.444ZM145.822 90.0313C144.721 89.8672 143.831 89.3627 143.152 88.5177C142.474 87.6728 142.211 86.7389 142.363 85.7161C142.516 84.6933 143.039 83.8766 143.935 83.266C144.83 82.6555 145.828 82.4322 146.93 82.5963C148.041 82.7619 148.931 83.2664 149.599 84.1099C150.278 84.9549 150.541 85.8888 150.388 86.9116C150.236 87.9344 149.712 88.751 148.817 89.3616C147.932 89.9736 146.933 90.1969 145.822 90.0313ZM149.05 124.772L153.691 93.6162L161.775 94.8205L161.186 98.774L161.363 98.8004C161.773 98.0772 162.31 97.4385 162.976 96.8842C163.643 96.3201 164.428 95.9093 165.331 95.6517C166.235 95.3843 167.248 95.3342 168.369 95.5012C169.864 95.7239 171.226 96.3339 172.454 97.3312C173.693 98.33 174.607 99.748 175.198 101.585C175.799 103.424 175.896 105.71 175.488 108.444C175.099 111.06 174.368 113.168 173.295 114.768C172.232 116.368 170.959 117.491 169.476 118.134C168.003 118.779 166.459 118.982 164.847 118.742C163.784 118.583 162.861 118.27 162.076 117.801C161.303 117.324 160.666 116.741 160.165 116.054C159.676 115.357 159.331 114.602 159.13 113.788L159.012 113.771L157.193 125.985L149.05 124.772ZM159.969 106.132C159.805 107.234 159.806 108.209 159.971 109.058C160.147 109.899 160.468 110.58 160.933 111.101C161.41 111.615 162.022 111.927 162.769 112.038C163.516 112.15 164.182 112.033 164.766 111.688C165.362 111.334 165.857 110.779 166.251 110.024C166.656 109.26 166.942 108.317 167.109 107.196C167.276 106.075 167.277 105.095 167.11 104.256C166.955 103.408 166.643 102.733 166.175 102.231C165.718 101.721 165.116 101.41 164.369 101.299C163.621 101.188 162.945 101.308 162.34 101.66C161.746 102.004 161.241 102.557 160.826 103.32C160.422 104.074 160.136 105.011 159.969 106.132ZM175.946 128.779L180.588 97.6229L188.672 98.8272L188.083 102.781L188.26 102.807C188.669 102.084 189.207 101.445 189.872 100.891C190.539 100.327 191.324 99.916 192.227 99.6584C193.132 99.391 194.144 99.3409 195.266 99.5079C196.76 99.7306 198.122 100.341 199.351 101.338C200.589 102.337 201.504 103.755 202.095 105.592C202.696 107.431 202.792 109.717 202.385 112.451C201.995 115.067 201.264 117.175 200.192 118.774C199.129 120.375 197.856 121.497 196.373 122.141C194.899 122.786 193.356 122.988 191.743 122.748C190.681 122.59 189.758 122.277 188.973 121.808C188.2 121.331 187.563 120.748 187.062 120.06C186.572 119.364 186.227 118.609 186.027 117.795L185.909 117.778L184.089 129.992L175.946 128.779ZM186.866 110.139C186.702 111.241 186.702 112.216 186.867 113.065C187.044 113.905 187.365 114.586 187.83 115.108C188.306 115.621 188.918 115.934 189.666 116.045C190.413 116.156 191.079 116.039 191.663 115.694C192.259 115.341 192.753 114.786 193.147 114.03C193.553 113.266 193.839 112.324 194.006 111.203C194.173 110.082 194.173 109.101 194.007 108.262C193.851 107.415 193.54 106.74 193.072 106.238C192.615 105.728 192.013 105.417 191.265 105.306C190.518 105.194 189.842 105.315 189.236 105.667C188.642 106.011 188.137 106.564 187.722 107.326C187.318 108.08 187.033 109.018 186.866 110.139ZM204.109 124.289L207.484 101.63L215.627 102.843L212.252 125.502L204.109 124.289ZM211.907 99.8758C210.806 99.7118 209.916 99.2072 209.238 98.3623C208.559 97.5173 208.296 96.5834 208.449 95.5606C208.601 94.5378 209.125 93.7211 210.02 93.1106C210.915 92.5 211.913 92.2768 213.015 92.4408C214.126 92.6064 215.016 93.1109 215.685 93.9544C216.363 94.7994 216.626 95.7333 216.474 96.7561C216.321 97.7789 215.798 98.5956 214.902 99.2061C214.017 99.8181 213.019 100.041 211.907 99.8758ZM226.443 114.587L224.544 127.333L216.401 126.12L219.776 103.461L227.506 104.612L226.865 108.92L227.101 108.955C227.806 107.592 228.839 106.595 230.2 105.964C231.571 105.333 233.087 105.142 234.749 105.39C236.352 105.628 237.689 106.205 238.759 107.118C239.841 108.023 240.611 109.163 241.07 110.538C241.538 111.915 241.645 113.424 241.391 115.065L239.237 129.522L231.094 128.309L232.992 115.563C233.169 114.443 233.015 113.52 232.53 112.795C232.055 112.071 231.306 111.632 230.283 111.48C229.615 111.38 229.007 111.441 228.462 111.661C227.928 111.873 227.487 112.23 227.141 112.731C226.797 113.222 226.564 113.841 226.443 114.587ZM252.837 140.716C250.565 140.377 248.666 139.763 247.14 138.872C245.623 137.992 244.501 136.921 243.774 135.656C243.056 134.403 242.751 133.041 242.86 131.569L250.708 132.738C250.715 133.232 250.854 133.65 251.125 133.992C251.395 134.334 251.767 134.605 252.24 134.806C252.721 135.019 253.271 135.171 253.891 135.263C254.943 135.42 255.851 135.294 256.616 134.885C257.391 134.478 257.877 133.605 258.077 132.268L258.648 128.432L258.412 128.397C258.003 129.12 257.453 129.707 256.762 130.157C256.074 130.597 255.28 130.896 254.382 131.054C253.485 131.202 252.526 131.2 251.503 131.047C249.89 130.807 248.461 130.212 247.215 129.262C245.979 128.314 245.074 126.968 244.499 125.224C243.934 123.481 243.847 121.301 244.236 118.685C244.644 115.951 245.398 113.792 246.498 112.207C247.609 110.623 248.897 109.533 250.363 108.937C251.839 108.343 253.324 108.157 254.819 108.379C255.94 108.546 256.895 108.89 257.682 109.409C258.47 109.919 259.102 110.54 259.575 111.274C260.051 111.999 260.379 112.766 260.559 113.577L260.736 113.604L261.325 109.65L269.468 110.863L266.102 133.463C265.816 135.381 265.077 136.935 263.884 138.124C262.7 139.325 261.16 140.146 259.265 140.588C257.37 141.029 255.227 141.072 252.837 140.716ZM255.374 125.713C256.121 125.824 256.791 125.713 257.384 125.379C257.988 125.037 258.49 124.498 258.891 123.764C259.303 123.021 259.591 122.099 259.756 120.997C259.923 119.876 259.918 118.895 259.742 118.055C259.576 117.206 259.255 116.53 258.777 116.026C258.31 115.514 257.703 115.203 256.956 115.091C256.209 114.98 255.537 115.101 254.942 115.455C254.357 115.8 253.862 116.355 253.457 117.119C253.063 117.874 252.783 118.813 252.616 119.934C252.449 121.055 252.444 122.029 252.602 122.857C252.772 123.677 253.086 124.332 253.546 124.822C254.017 125.305 254.626 125.601 255.374 125.713ZM293.223 121.942L285.729 120.825C285.758 120.357 285.656 119.935 285.42 119.558C285.185 119.181 284.854 118.87 284.428 118.626C284.013 118.373 283.535 118.206 282.995 118.126C282.296 118.022 281.677 118.06 281.138 118.241C280.598 118.422 280.298 118.749 280.237 119.223C280.178 119.556 280.274 119.887 280.527 120.216C280.789 120.547 281.341 120.855 282.183 121.141L286.663 122.653C288.921 123.422 290.541 124.392 291.522 125.564C292.515 126.727 292.892 128.145 292.653 129.819C292.403 131.43 291.712 132.76 290.581 133.807C289.461 134.847 288.031 135.569 286.292 135.973C284.564 136.369 282.653 136.411 280.558 136.099C277.097 135.584 274.493 134.472 272.746 132.764C271.01 131.058 270.202 129.027 270.321 126.673L278.405 127.877C278.407 128.611 278.678 129.22 279.219 129.702C279.772 130.177 280.51 130.483 281.435 130.62C282.182 130.732 282.816 130.695 283.336 130.512C283.866 130.329 284.171 130.003 284.251 129.532C284.306 129.098 284.141 128.721 283.756 128.403C283.381 128.085 282.762 127.782 281.901 127.493L277.994 126.187C275.743 125.44 274.126 124.415 273.144 123.112C272.162 121.81 271.808 120.269 272.083 118.491C272.308 116.916 272.919 115.645 273.918 114.678C274.928 113.702 276.257 113.046 277.906 112.708C279.566 112.362 281.472 112.35 283.626 112.671C286.901 113.159 289.382 114.222 291.068 115.86C292.764 117.5 293.482 119.527 293.223 121.942Z" fill="black"/>
</svg>
